Patient4_TMGait_0pt5_01_right_24_EMG.mot
version=1
nRows=37
nColumns=33
inDegrees=no
endheader
time	1LAddLong	2LGlutMax	3LGlutMed	4LIliopsoas	5LSemiMemb	6LBicFemLong	7LRecFem	8LVastMed	9LVastLat	10LGasMed	11LTibAnt	12lTibPost	13LPeroneusLong	14LSol	15LExtDigLong	16LFlexDigLong	17RAddLong	18RGlutMax	19RGlutMed	20RIliopsoas	21RSemiMemb	22RBicFemLong	23RRecFem	24RVastMed	25RVastLat	26RGasMed	27RTibAnt	28RTibPost	29RPeroneusLong	30RSol	31RExtDigLong	32RFlexDigLong
31.45	0.011749	-0.1207	-0.027161	-0.008545	0.019073	-0.026093	0.1712	0.006104	-0.057526	-0.013428	-0.16617	0.023041	0.23987	-0.20309	0.42954	0.027008	-0.037231	0.3157	0.32867	0.11093	0.064087	-0.013885	0.51682	0.074615	-0.009155	-0.005493	0.25467	-0.000916	-0.18967	-0.11688	-0.002289	-0.001526
31.451	-0.006866	-0.12131	-0.041504	-0.005798	-0.018463	0.010681	0.13611	0.009308	-0.0914	-0.046234	-0.23956	0.014496	0.2179	-0.033875	0.40726	0.028229	-0.030823	0.30304	0.36072	0.089569	0.046234	0.018311	0.25711	0.070496	-0.02655	-0.000458	0.15015	-0.000458	-0.18539	-0.068817	-0.001831	-0.002136
31.452	-0.00061	-0.13947	0.062103	0.001373	-0.036011	0.11704	0.20493	0.012512	-0.12405	-0.0383	-0.1651	0.020447	-0.18829	0.002441	0.26276	0.025177	-0.03067	0.21744	0.22171	0.075989	0.045776	0.018311	0.09079	0.003967	-0.041809	0.00412	0.088654	-0.00351	-0.088654	-0.11215	-0.002899	-0.002747
31.453	-0.002136	-0.15884	0.04776	0.007782	-0.025024	0.20142	0.19302	0.012512	-0.15854	-0.019379	0.031433	0.014191	0.24948	-0.13962	0.11475	0.014496	-0.00824	0.14511	0.10666	0.057373	0.040894	0.018158	-0.020142	-0.079193	-0.055389	0.006866	0.21179	0.000153	0.059357	-0.14069	-0.002289	-0.007935
31.454	0.007629	-0.11841	-0.043182	0.011749	-0.039978	0.21576	0.088806	0.007477	-0.072632	-0.005798	0.15396	0.017242	0.56976	-0.27268	0.092163	0.01709	-0.023499	0.15884	0.2977	0.00885	0.018921	0.007324	0.03418	-0.1506	-0.043488	0.005035	0.27298	-0.000305	0.11215	-0.1387	-0.001831	-0.012512
31.455	0.005188	-0.085297	-0.049286	0.003357	0.000458	0.1857	0.054474	0.009613	-0.029297	-0.010071	0.15472	0.004883	0.43793	-0.24307	-0.064392	0.007629	-0.043488	0.17578	0.28824	0.017548	-0.000458	-0.017548	0.08316	-0.11704	-0.038757	-0.003967	0.60333	-0.005035	0.069733	-0.038605	-0.002899	-0.018158
31.456	0.007629	-0.061798	0.021515	0.002136	0.054779	0.13534	0.019531	0.005951	0.13092	-0.0177	0.10513	0.013733	-0.10941	-0.21668	0.15701	0.017548	-0.041199	0.16693	0.20737	0.018768	-0.02594	-0.014343	0.12955	-0.11688	-0.044098	-0.01236	0.33279	-0.001068	0.054474	0.039978	-0.002747	-0.022278
31.457	0.015259	-0.03418	-0.007477	0.009003	0.046844	0.13565	0.031891	0.018463	0.17716	0.009918	-0.083618	0.00946	-0.57068	-0.12116	0.16968	0.019531	-0.061493	0.15381	0.12405	-0.048523	-0.017548	-0.011749	0.10742	-0.13382	-0.061493	-0.006104	-0.28641	-0.011902	-0.057373	-0.04776	-0.002289	-0.013733
31.458	0.007172	0.001068	0.044098	-0.001678	0.015869	-0.06134	0.082092	0.009613	0.061035	0.017395	-0.20554	0.003357	-0.3009	-0.022583	0.18082	0.034027	-0.072937	0.20386	0.07309	-0.046082	-0.023651	0.001068	-0.25436	-0.13504	-0.063324	-0.008392	-1.0646	-0.006409	-0.18509	-0.0914	-0.003967	-0.019989
31.459	-0.000763	0.001831	0.019226	-0.01358	0.001678	-0.011597	0.13168	0.016327	-0.051727	0.011444	0.020447	0.002594	-0.005951	-0.17639	0.21347	0.025024	-0.075226	0.1236	-0.041046	0.049591	-0.012665	-0.014496	-0.010223	-0.042572	-0.041351	-0.000916	-1.2321	-0.009766	-0.26077	-0.025177	-0.00351	-0.015259
31.46	0.006866	-0.002747	-0.063171	0.009766	-0.00473	-0.015106	0.097809	0.008087	-0.007172	0.013428	0.25742	0.005341	-0.14786	-0.14557	0.09552	0.029602	-0.09613	0.076141	-0.16815	0.093384	0.015717	0.012512	0.27741	0.014343	-0.026093	0.002136	-0.84732	-0.008545	-0.1207	0.009613	-0.003357	-0.018311
31.461	0.019836	0.039063	-0.05127	0.026855	-0.004883	-0.13855	0.056458	0.003967	0.04776	0.024109	0.34439	0.016632	-0.58411	-0.054626	0.027924	0.02594	-0.041962	0.10895	-0.16235	0.09964	0.024719	-0.009766	0.46417	-0.013275	-0.042267	0.004425	-0.06424	-0.006256	0.088043	0.008087	-0.003662	-0.018311
31.462	0.019836	0.078125	0.040131	0.020294	-0.018921	-0.22415	0.043182	0.003204	0.040894	0.01297	0.24262	0.004578	-0.42602	0.080872	0.18738	0.015717	-0.007324	0.12466	0.052338	0.049286	0.02594	-0.029602	0.44495	-0.049591	-0.050964	0.002289	0.65811	-0.007324	0.14664	-0.040741	0.008545	-0.005341
31.463	-0.006104	0.072021	0.043945	0.016174	-0.023956	-0.34637	0.20889	-0.012665	-0.008545	-0.040588	-0.04715	0.004272	0.25879	0.075378	0.055237	0.02533	-0.003815	0.079803	0.26871	-0.083923	0.015106	-0.037384	0.37186	-0.02655	-0.016632	0.011749	0.48187	-0.006256	0.1358	-0.046692	-0.00061	-0.005493
31.464	-0.024872	0.069733	0.11643	0.031433	-0.05722	-0.1767	0.2655	-0.00473	-0.019226	-0.087128	-0.27283	0.00824	0.45532	0.14297	0.004425	0.022736	0.017395	0.092163	0.28824	-0.17075	0.016022	-0.009003	0.38773	-0.04715	-0.030975	-0.010223	0.27252	-0.007019	-0.01358	0.008087	-0.003967	-0.008698
31.465	-0.023956	0.11368	0.02121	0.014038	-0.11902	-0.056915	0.21454	-0.005035	0.018158	-0.041351	-0.32105	0.009766	0.21057	0.18158	0.51056	0.028229	-0.010529	0.063629	0.093231	-0.1004	0.023499	0.041809	0.4187	-0.018158	0.021362	-0.025482	0.15579	-0.003815	-0.045776	-0.083923	-0.001678	-0.002899
31.466	-0.021973	0.09964	-0.081787	0.00885	-0.09964	0.016785	0.17319	0.004272	0.015564	-0.019836	-0.17807	0.014343	-0.23148	0.19836	-0.092773	0.028839	0.014038	0.10468	0.23483	-0.005646	0.027618	0.059814	0.31998	0.038147	0.041962	-0.037842	-0.15808	-0.007477	-0.16708	-0.028992	0.010071	-0.00824
31.467	-0.015259	0.16388	-0.055389	0.012207	0.065002	0.008698	0.11551	0.008698	0.057068	-0.046997	-0.10391	0.016174	-0.22324	0.24857	0.44067	0.030365	0.041199	0.075989	0.17761	0.08316	0.034027	0.066223	0.15045	-0.05127	0.04715	-0.035553	-0.69992	-0.007782	-0.1268	0.028229	-0.001221	-0.010223
31.468	-0.001068	0.22812	-0.061035	-0.011139	0.13062	0.093994	0.066071	0.013123	0.11963	-0.006256	0.032654	0.023651	-0.23499	-0.065613	-0.28534	0.0354	0.042725	0.053406	0.14191	0.15579	0.020599	0.060577	0.21423	-0.10544	0.010834	-0.02243	-0.73975	-0.009003	0.092773	0.005035	0.00061	-0.016937
31.469	-0.002136	0.23682	-0.12344	0.008545	0.048981	0.15427	0.056152	0.006104	0.063934	0.000305	-0.009308	0.029602	0.20096	-0.21164	-0.82596	0.023041	0.028076	0.064545	0.13107	0.18082	0.018921	0.054321	0.37186	-0.13046	0.006561	-0.007019	-0.44327	-0.002594	0.16602	-0.02182	-0.003204	-0.001526
31.47	-0.003052	0.23468	-0.18906	0.003967	-0.004578	0.14175	0.045471	-0.005493	-0.016785	0.007935	0.020447	0.023193	0.19882	0.024261	-0.27344	0.026245	0.05722	0.11643	0.13931	0.088959	0.012512	0.067291	0.37628	-0.10849	-0.013428	-0.004425	-0.09964	-0.005798	0.2417	-0.12634	-0.001068	-0.005188
31.471	-0.013275	0.25101	-0.076599	-0.009766	-0.022736	0.10803	0.06897	-0.009155	-0.06485	0.031128	0.11398	0.019379	-0.036163	0.041656	0.013733	0.026245	0.05127	0.12238	0.39825	0.14496	0.014191	0.054016	0.33066	-0.12756	-0.00473	-0.006409	0.032959	-0.002594	0.34729	-0.06958	-0.002441	-0.000916
31.472	0.006714	0.29419	0.11108	-0.009003	-0.033264	0.074921	0.072327	-0.005341	-0.022125	0.055847	0.10208	0.030518	-0.40253	-0.19073	-0.14221	0.016174	0.045013	0.17548	0.60104	0.087128	0.014496	0.056458	0.21011	-0.090942	-0.025177	-0.006866	0.083466	-0.006104	0.22614	0.046844	-0.002441	-0.000153
31.473	0.015411	0.31357	0.30701	-0.006409	-0.006561	0.061798	0.071259	-0.000458	0.004425	0.033417	0.16602	0.023804	-0.38711	-0.22186	-0.23666	0.005188	0.009613	0.18463	0.15259	0.091705	0.007324	0.034943	0.18921	-0.1088	-0.011597	-0.011292	0.22247	0.002747	0.10132	0.10101	-0.005035	-0.002594
31.474	0.00824	0.24994	0.23758	0.002594	0.014191	0.10971	0.050507	0.00412	0.00473	-0.011292	0.13763	0.033417	-0.029907	-0.17746	-0.00351	0.015259	-0.0177	0.042419	-0.25024	0.097046	0.004578	0.042572	0.21057	-0.067902	-0.006866	0.002899	0.74692	-0.002899	0.17242	-0.093079	-0.006866	0.001221
31.475	0.005798	0.22461	0.052643	0.00946	-0.019226	0.12085	0.054016	0.014191	0.009308	-0.083923	-0.031891	0.019836	0.041046	-0.24857	0.046082	0.023499	-0.019989	0.005188	-0.33203	0.093689	0.000458	0.046844	0.099182	-0.11459	-0.003967	0.008087	1.0327	-0.00412	0.21606	-0.15305	-0.003052	-0.000153
31.476	-0.001831	0.22995	0.055237	0.018921	-0.058899	0.13184	0.072021	0.00824	0.014801	-0.10925	-0.10132	0.011902	-0.30212	-0.31052	-0.048218	0.022736	0.034943	-0.010223	-0.26733	0.014801	-0.004883	0.038147	-0.081329	-0.11627	0.013123	0.000458	-0.045319	-0.004272	0.074005	-0.080414	-0.003204	0.022125
31.477	-0.01297	0.26779	0.066681	0.008545	-0.068054	0.15869	0.089417	0.010071	0.022583	-0.13336	-0.043793	0.010376	-0.12192	-0.28442	0.042877	0.024109	0.064392	0.023651	-0.21332	-0.12604	-0.01709	0.012207	-0.2214	-0.13992	-0.001068	-0.011902	-0.52673	-0.006256	-0.08194	0.17914	-0.001831	0.010071
31.478	-0.01236	0.24368	0.040283	0.029297	-0.038605	0.22018	0.077972	0.011292	0.010529	-0.12711	-0.046082	0.01358	-0.00885	-0.15976	-0.079498	0.028534	0.062408	0.025635	-0.16708	-0.19623	-0.027161	-0.013733	-0.18936	-0.20767	-0.010681	-0.024414	-0.070801	-0.007629	-0.20981	0.28503	-0.008698	0.008392
31.479	-0.001984	0.27557	0.038147	0.005188	-0.07843	0.31815	0.094147	0.011749	-0.000153	-0.11795	-0.055695	0.015717	0.22049	-0.037079	-0.15198	0.032959	0.075073	0.00061	0.08667	-0.16663	-0.034027	-0.036774	-0.12299	-0.23743	-0.021973	-0.020447	0.29892	-0.007324	-0.34256	0.19806	-0.00351	0.014191
31.48	0.00412	0.26047	0.037842	0.00351	-0.089111	0.3627	0.09491	0.000763	0.008087	-0.14771	-0.041504	0.005188	0.51254	0.1416	-0.019379	0.027771	0.063782	0.022278	0.067444	-0.083771	-0.043488	-0.048981	-0.041809	-0.17914	-0.015564	-0.012512	0.18448	-0.007782	-0.37613	0.1239	-0.001984	0.019379
31.481	0.012512	0.22263	0.01709	0.020447	0.050201	0.24155	0.097961	-0.003662	0.009766	-0.081787	-0.036011	0.006866	0.25131	0.10315	0.01236	0.036926	0.046692	-0.008545	-0.14572	0.006104	-0.010834	-0.054932	-0.026093	-0.18875	-0.007477	-0.017853	-0.16998	-0.006866	-0.10696	0.084839	-0.008545	0.016632
31.482	0.011292	0.23499	-0.038605	0.020447	0.11917	-0.027924	0.11368	0.005188	0.005035	0.007629	-0.033264	0.002899	-0.063324	-0.012207	0.007935	0.019836	0.054932	0.061188	-0.12161	0.17395	0.074005	-0.09613	-0.032043	-0.14008	0.011902	-0.012512	-0.34607	-0.009308	0.14755	-0.017242	-0.003967	0.021973
31.483	0.013123	0.21118	0.000153	0.01709	0.11215	-0.38498	0.14984	0.010986	-0.054626	0.071411	-0.019836	0.010986	-0.098114	-0.059967	0.028687	0.017853	0.053711	0.005188	-0.073395	0.14023	0.048828	-0.095367	0.023956	-0.10513	-0.001221	-0.007477	-0.19836	-0.000153	0.096588	-0.1059	-0.006866	0.016479
31.484	0.012512	0.25559	0.14053	0.004883	0.079651	-0.31448	0.17929	0.012817	-0.058746	0.13672	-0.024872	0.000153	-0.16678	-0.10544	0.094147	-0.000458	0.029755	0.055542	-0.10941	0.045929	-0.061035	-0.066223	0.10513	-0.092926	-0.004272	-0.012817	0.051575	-0.001678	0.16251	-0.15884	-0.003357	0.014038
31.485	0.000763	0.28442	0.080414	0.009613	0.045166	-0.38986	0.20523	0.00885	0.017395	0.23834	-0.032349	0.016785	-0.36072	-0.28259	0.11047	-0.001678	-0.024719	0.091858	0.11108	0.006561	-0.26962	0.038605	0.082245	-0.037231	-0.000763	-0.005493	0.44571	-0.000916	0.13657	-0.11612	0.002136	0.007782
31.486	-0.003357	0.17548	0.000916	-0.003662	-0.003662	-0.54901	0.22369	0.011139	0.042725	0.31082	-0.006256	0.001831	-0.14511	-0.36377	0.11322	0.007629	-0.091705	-0.003662	0.16922	0.010376	-0.31509	0.16754	0.009308	0.029755	0.001373	-0.000305	0.21088	-0.000153	-0.14664	-0.13657	0.000916	-0.010223
